<svg xmlns="http://www.w3.org/2000/svg" xmlns:xlink="http://www.w3.org/1999/xlink" width="100%" height="100%" viewBox="0 0 1149 755" fill-rule="evenodd" stroke-linejoin="round" stroke-miterlimit="2"><style><![CDATA[.B{fill-opacity:.1}.C{fill-rule:nonzero}.D{fill:#fbbebe}.E{fill:#3d5565}.F{fill:#1b374a}.G{fill:#e7effd}.H{fill:#386da8}]]></style><g class="C"><path d="M1065.62 619.94a284.55 284.55 0 0 1-11 9.19l-1.92 1.52c-13.36 10.366-27.4 19.843-42 28.37l-2.73 1.6a43.18 43.18 0 0 1-2 1.14c-15.26 8.8-31.1 16.92-47.1 24.6l-.17.1-1.2.57c-12.92 6.193-26.033 12.12-39.34 17.78l-.32.12-18 7.38c-2.45 1-4.9 1.93-7.37 2.88l-14.53 5.4-1 .35-1.25.46c-12.207 4.36-24.577 8.387-37.1 12.08l-.22.06a627.9 627.9 0 0 1-26.39 7.07l-1.2.3c-13 3.14-26.2 5.84-39.5 8l-3.06.5a510.31 510.31 0 0 1-29.36 3.74c-55.4 5.35-111.44 1-166.5-6.46-111.16-15.08-220.85-43.35-320.9-87.66a933.57 933.57 0 0 1-56.48-27.3c-.15-.08-.28-.16-.43-.23a816.93 816.93 0 0 1-32.69-18.15l-9.4-5.55-11.43-7-15-9.6-2.34-1.56-4.68-3.17c-47-32-88.9-70.78-108.7-119.3-22.88-56-8.24-127 48.43-160.1 19.48-11.4 42.12-17.6 65-22.7l2.34-.52 11.6-2.5 40.48-8.87c7-1.65 13.93-3.38 20.82-5.25l2.82-.78a337.11 337.11 0 0 0 48.61-17.12h.1c1.7-.75 3.36-1.53 5-2.33l3.18-1.55c17-8.46 35-20.2 48.85-34.17 1.1-1.12 2.2-2.26 3.24-3.4l2.38-2.7c9.7-11.32 16.43-23.9 17.7-37.23a48 48 0 0 0-.6-13.43c-1.57-8.4-3.1-16.6-4.2-24.6-2.1-15.05-2.8-29.44.1-43.3 2.95-14.14 9.64-27.75 22.4-40.95 1.927-2 4.003-4 6.23-6 10.327-9.06 22.013-16.444 34.63-21.88l4.7-2C429.2 1.56 471.34-1.4 510.72.56a636.09 636.09 0 0 1 109.26 15.2l8.53 2c30.548 7.4 60.607 16.695 90 27.83 76.38 28.73 148.47 68.62 215.82 112.64l2 1.3 8.4 5.52 16 10.77 3.57 2.43 5.25 3.6 5.36 3.7c.25.152.5.322.72.5l4.56 3.16 7.9 5.55 5.64 4 3.52 2.52 6 4.38 1.34 1a16.26 16.26 0 0 1 .83.62l.17.1c16.26 11.93 32.13 24.3 47 37.4l2.12 1.88 4.83 4.37c19.42 17.68 36.82 36.68 51.04 57.68 65.32 97 45.93 231.3-44.94 311.18z" class="B F"/><path d="M1133.87 412.94c.64-1.74-4.14-11.4-4.14-11.88s-5-5.85-5-8.87-6.53-9.5-6.53-9.5-8.78-3.65-9.74-11.56-10.16-8.08-10.52-8.1c0 0 0-.72.06-1.82 0-2.46-.07-6.85-1.18-9.26-1.13-2.187-3.08-3.843-5.42-4.6s-1-6.17-2.88-8.07a9.1 9.1 0 0 1-2.22-8.56c.53-1.68.07-4.8-1.25-7.4-1-2.07-2.62-3.84-4.66-4.33h-.17c-4.58-1.1-9.7-2.8-9.7-2.8s-.52.1-1.3.2l-.64-.2a28.54 28.54 0 0 1-3.34.42c-.98.033-1.94-.283-2.7-.9-1.6-1.75-14.52-5.07-16.9-5.07s-9.26-3.17-9.26-3.17l-6.85-5.23c-1.92-1.46-5.48-7.4-6-8.28l-.08-.1c-.5-1.133-.92-2.3-1.26-3.5-.07-.22-.12-.44-.2-.68 1.4-1.457 2.67-3.022 3.8-4.68v-.05c.3-.43.6-.9.9-1.35.42-.667.82-1.357 1.2-2.07l.47-.93a3.95 3.95 0 0 0 1-.17l.43-.16a5.31 5.31 0 0 0 1.1-.69l.32-.3c.9-.85 1.6-1.903 2-3.07.1-.34.2-.7.3-1 0-.12.06-.25.1-.36s.1-.48.15-.73l.06-.4c0-.25.08-.48.12-.7s0-.28 0-.4c0-.3.08-.6.1-.9.14-1.13.26-2.24.5-3.34.01-.016.01-.034 0-.05.52-2.12 1.32-4.162 2.36-6.08 1-1.93 2.1-3.83 3-5.82.26-.57.5-1.15.73-1.73s.44-1.28.64-1.93c0-.2.1-.4.14-.6a13.99 13.99 0 0 0 .32-1.43c.05-.207.1-.417.12-.63.12-.66.2-1.32.26-2a24.59 24.59 0 0 0-1.64-11.13c-1.2-3-3-5.65-4.2-8.62-1.83-4.5-2.3-9.6-4.55-13.9-3.75-7.2-12.6-10.8-19.87-8.1-3.46 1.28-6.47 3.8-10 4.92-4.7 1.5-9.75.37-14.63-.3s-10.28-.73-14.2 2.45c-4.5 3.67-5.75 10.57-10 14.6-1.032.932-2.147 1.77-3.33 2.5-.86.6-1.73 1.17-2.54 1.84-1.322 1.047-2.34 2.428-2.95 4a3.37 3.37 0 0 0-.11.34 3.06 3.06 0 0 0-.11.41c0 .15-.05.3-.07.47s0 .22 0 .33c-.015.24-.015.48 0 .72s0 .08 0 .12c0 .26.08.53.13.8v.22c0 .08.12.45.2.66a.47.47 0 0 1 0 .13c.084.245.18.485.3.72 0 .1.1.24.14.36.06.094.106.195.14.3a18.94 18.94 0 0 1 1.48 3.67c.195.8.143 1.66-.15 2.44-.155.39-.37.75-.64 1.07a13.42 13.42 0 0 1-1.12 1.24c-3.175 3.303-5.63 7.23-7.2 11.53-.18.5-.35 1-.5 1.5l.2.06.2.05c.39.118.787.2 1.2.25a7.17 7.17 0 0 0 .8.09c1.093.058 2.2-.03 3.26-.26a4.78 4.78 0 0 0 .53-.12c.055-.01.11-.026.16-.05h.1c.896-.233 1.772-.537 2.62-.9.2-.1.4-.17.6-.27v3.72c.76 12.78 7.992 24.328 19.16 30.6.57.33 1.13.64 1.7.93l.14 1 .1.86-.44-.4a2.9 2.9 0 0 0-1.19-.24 3.82 3.82 0 0 0-1.9.49c-1.02.587-1.878 1.423-2.5 2.43-2.7 4.13-7.82 6-7.82 6s-29 4.6-30.14 8.4l-13.56.8s-4.8.63-5.26 10.6v.23c-.07 1.2-.16 2.25-.27 3.2v.14c-.84 6.65-2.74 7.36-2.74 7.36s-5.6 9.82-5.1 14.9a.48.48 0 0 1 0 .12 6.54 6.54 0 0 1-.13 2.05 9 9 0 0 1-4.18 5.39l-.63 9s-5.26-.8-6.7 5.4-4 9-4 9-8.77 7.3-9.25 13.46l-5.43 3.33s-12.6-2.85-15.47-7.92c0 0-.34-.34-.88-.83l-.08-.12a.3.3 0 0 0 0 .06c-1.88-1.78-5.9-5.5-5.27-4.65a3.92 3.92 0 0 1 .26 2.56l-.94-1-2.5-2.8s-3.6-3.36-8.64-7.37c-1.153-.92-2.37-1.86-3.65-2.82-6.46-4.8-14.23-9.65-20-10.38-.12-.24-.6-2.05-1.73-2.05-.475.04-.918.258-1.24.6-3.427 3.15-5.38 7.597-5.38 12.25a16.65 16.65 0 0 0 5.269 12.149l1.3 1.22 17.76 16.6c.17.12.33.25.5.36l.8 1 .63.8 1.1 1.4 1.57 2c-.08.2-.17.4-.24.6-.6 1.44-1.1 2.84-1.52 4.12v.14l-.3.92c0 .1-.07.2-.1.3-.1.3-.18.6-.27.87s-.1.35-.14.52-.07.2-.1.3a60.64 60.64 0 0 0-.88 3.49l-1.06-.33 1 .45c.004.057.004.113 0 .17l-.06.32c.3.15.64.3 1 .43l.23.1 9 3.98c10.24 4.56 24.6 11.1 25.6 12.42 1.6 2.07 12.12 8.08 21.7 3S905.15 431 905.15 431s9.26-12.82 9.58-14.72c.24-1.46 4.52-3.1 6.5-3.8l.2-.06.8-.26v2.42c0 4.46-.06 14.16-1.46 21.2-.005.02-.005.04 0 .06a23.03 23.03 0 0 1-1.59 5.3c-3.67 7.76-10.52 42.14-10.52 42.14h.16a4.64 4.64 0 0 1 1.2-.06c-.14.64-.23 1.14-.3 1.48l-.1.5h.12c.382-.072.772-.096 1.16-.07.13.006.262.023.4.05 0 .2-.06.44-.1.72v.25c0 .04-.06.3-.08.48l-3.23 20.6s-1 8.23-2.56 11.08c-.67 1.2-1.08 4.56-1.34 8 0 .5-.07 1-.1 1.52-.26 4.24-.3 8.2-.3 8.2l-.07.26-2.35 10.66c.038.1.082.196.13.3.17.32.44.87.83 1.55l.12.26a29.76 29.76 0 0 0 5.54 7.8c.523.52 1.084.997 1.68 1.43 0 .12-.05.25-.07.35s-.06.38-.1.56a16.18 16.18 0 0 1-1.13 4 13.39 13.39 0 0 0-1.15 4.36 20.04 20.04 0 0 0-.1 3.24l-.13.6c-.35 1.63-1.35 6.4-1.9 10.3a45.53 45.53 0 0 0-.32 2.55c-.067.742-.067 1.488 0 2.23a18.36 18.36 0 0 1-.2 3.74c0 .36-.08.73-.13 1.1-.54 3.52-1.43 7.2-1.43 7.2l-2.87 27.55v1.63c0 .2 0 .45-.06.72 0 .65-.1 1.42-.17 2.32 0 .32-.02.653-.06 1 0 .3 0 .62-.06.95v.52c0 .18 0 .52-.05.8s0 .5 0 .76v.7l-.26 4.67v1.54c0 .5 0 1-.07 1.54v10.18a29.16 29.16 0 0 0 .24 3.18 26.59 26.59 0 0 1 .23 2.44v1.16a5.61 5.61 0 0 1 0 .58v4.48c-.25 3.44-.72 6.23-.8 6.67v.94c0 .25.06.57.1.92v.5c0 .18 0 .38.06.58s0 .2 0 .3c0 .36.06.73.1 1.12l.12 1.23.06.8c0 .38.08.78.1 1.17v.4c0 .27.06.53.08.8l.1 1.23c0 .27.06.55.08.82s0 .28 0 .42l.13 1.62c0 .27 0 .53.05.8 0 .42.06.85.1 1.25s0 .92.07 1.34.05.84.06 1.22c.114 1.127.114 2.263 0 3.4-.26 1.14-1.1 4.33-1.58 7.8 0 .3-.1.62-.12.94s0 .37 0 .56l-.06.75c0 .6-.07 1.2-.07 1.8a13.87 13.87 0 0 0 .45 4 18.93 18.93 0 0 1 .5 2.64c0 .14 0 .3.05.44 0 .32.07.65.1 1s.05.68.07 1c0 .7.06 1.42.1 2.15v1.45a142.79 142.79 0 0 1-.19 9.41v.26s1 17.75 2.07 23.44c.14.75.24 1.5.3 2.3 0 .3 0 .58.05.87a44.58 44.58 0 0 1-.68 9.84c-.6 3.245-1.12 12.2-1.6 12.2-.23 0-1.27 1.88-1.43 4.72v.08c-.14 3.17.83 7.53 5.25 11.84l.48.47.58-.22 13.95-5.18 7.37-2.88 18-7.38a1.14 1.14 0 0 1-.57-.72c-.92-2.45.45-10 .73-11.16s2.87-25.83 2.87-25.83-1-7.75.32-11.07-1.6-16.17-1.6-16.17-1-1.58.8-3.48 1.12-18.85 1.12-18.85L947.2 679c0-2.22 1.92-10.3 3.66-13s.65-11.1.65-11.1l.1-.64c0-.24.08-.54.14-.9l.15-.85a117.36 117.36 0 0 1 3.1-13.75c2.08-6.65 4.47-18.37 4.47-18.37L973.4 583l.46-1.16.17-.46s6.85 12.68 6.85 24.4c0 0 1.76 14.1 1.3 17.9s1.43 21.7 1.43 21.7l2.06 26.77c0 1.1 2.56 20.85 4.16 23.85s-1.6 12.2-2.55 13.15.32 24.24.32 24.24l-3.26 25.17c16-7.68 31.85-15.8 47.1-24.6l2-1.14.1-22.73s1.12-10.6-.16-14.9-2.55-12.5-.8-14.72.16-12.5.16-12.5 0-21.7 2.4-27.1 1.6-39.44 1.6-39.44l.63-22.34s5.1-4.82 4-29.8v-.85c5.56-.35 11.83-.55 12.78.23 1.52 1.22 10.08 6.76 16.7 5.38 1.1-.21 2.14-.64 3.06-1.27 1.44-.64 8-6.18 8-6.18l-2.8-47.48c.48.73.9 1.38 1.26 2a67.28 67.28 0 0 1 1.55 2.45c0-6.65 18.83-28.2 18.83-28.2s17.55-22.65 21.37-25.35 11.33-16.95 11.33-16.95c1.1-2.72 2.4-5.364 3.83-7.92 1.7-2.88-4.07-10.5-3.43-12.23zm-56.15 30.4a9.97 9.97 0 0 1-2.12 4.27l-.24-2.93v-.26c-1.12-13.94-2.32-30.8-1.77-32.45.45-1.32.6-4.82.66-8.18.07-3.83 0-7.48 0-7.48l.18-.25c3.22 10 13.2 21.66 13.2 21.66s1.76 5.07 3.83 5.23 1.27 6.65 1.27 6.65a7.53 7.53 0 0 0-2.72 1c-.98.57-1.93 1.207-2.82 1.9-4.58 3.48-9.37 9.2-9.48 10.83z" fill="url(#A)" transform="translate(-25.44 -72.24)"/><path d="M811.56 353.76s5.82-30.5 24.52-30.66l13.68 28.14-9.2 6.25s-19.76.63-29-3.73z" class="E"/><path d="M849.72 351.2l-9.16 6.3s-13.94.44-23.9-2c-1.753-.407-3.46-.987-5.1-1.73s0-.17.1-.5a.8.8 0 0 1 0-.12c.86-3.827 2.046-7.573 3.54-11.2.57-1.37 1.23-2.78 1.93-4.2 2.74-5.27 6.6-10.44 11.86-13 1.947-.954 4.065-1.51 6.23-1.63h.83l.3.62 4.62 9.5 8.74 17.94z" class="B"/><use xlink:href="#C" class="E"/><use xlink:href="#C" class="B"/><path d="M832.1 322.28s-1.55 19.18-13.55 19.48c0 0-3.38-2-7.94-5.45-10.5-7.85-27.15-22.95-22.55-37 6.6-20.12 38.67 17 38.67 17l2.47 2.76 2.9 3.2z" class="D"/><path d="M832.1 322.28s-1.55 19.18-13.55 19.48c0 0-3.38-2-7.94-5.45l-1-1.3c2.027 1.063 4.263 1.667 6.55 1.77 3 .06 6.38-1 8.55-5.4a69.52 69.52 0 0 0 3.31-7.61 22.94 22.94 0 0 0 1.2-4.72l2.88 3.23z" class="B"/><path d="M826.92 357.02l-2.7-3.46-9-11.65-4.67-5.95c2.025 1.058 4.258 1.66 6.54 1.76 3 .07 6.38-1 8.55-5.4a67.51 67.51 0 0 0 3.31-7.61c1.5-4.24 1.46-6.42.93-7.16s3.34 2.85 5.2 4.62l.07.06.86.82.33.64 4.55 9.1v.38c.42 2.9 1.95 21.23-13.98 23.83z" class="G"/><path d="M918.18 704.76c-.287-.245-.602-.453-.94-.62h-.08c-1.88-.8-.16-10.54.16-11.8s2.83-25.58 2.83-25.58-.94-7.7.32-11-1.58-16-1.58-16-.94-1.57.8-3.46 1.1-18.7 1.1-18.7l-.15-10.7c0-2.2 1.88-10.2 3.6-12.9s.63-11 .63-11l.1-.64c.05-.23.1-.53.14-.88l.15-.84c0-.2.07-.4.1-.64l.3-1.64c.06-.36.13-.74.2-1.12l.8-3.87.3-1.27.37-1.52.24-.92c.23-.92.48-1.8.75-2.66 2-6.6 4.4-18.24 4.4-18.24l14.78-38.84.46.9c1.52 3.07 6.3 13.52 6.3 23.3 0 0 1.74 14 1.26 17.76s1.42 21.54 1.42 21.54l2 26.56c0 1.1 2.52 20.76 4.1 23.74s-1.57 12.1-2.52 13 .32 24.06.32 24.06l-2.84 22-.5 4.26 1.2-.57.17-.1c16-7.68 31.85-15.8 47.1-24.6l.13-24.1s1.1-10.54-.15-14.78-2.52-12.42-.8-14.63.17-12.4.17-12.4 0-21.54 2.35-26.88 1.58-39.15 1.58-39.15l.62-22.16s5.13-4.9 3.92-30.4a228.92 228.92 0 0 0-.61-8.89l-2.55-25.9-.2-1.9-.26-2.48-.55-4.9-.9-7.56-.26-2.16-.36-2.93c0-.22-.06-.44-.1-.66 0-.4-.1-.78-.14-1.15l-.83-6.3h-.14l-15.8.14-82.73.76h-1.1l-7.4 30.46-15.1 34.6s-.23 3.8-.76 7.5v.22c0 .13 0 .25-.06.36s-.06.38-.1.56c-.21 1.678-.636 3.322-1.27 4.9-.5 1.094-.838 2.257-1 3.45a20.2 20.2 0 0 0-.23 3.83v.2s-1.2 5.45-1.9 10.1a45.53 45.53 0 0 0-.32 2.55c-.136.97-.182 1.95-.14 2.93a16.44 16.44 0 0 1-.11 3c0 .36-.08.73-.13 1.1-.5 3.68-1.48 7.8-1.48 7.8l-2.84 27.36c.002.03.002.06 0 .1v1.14c0 .2 0 .45-.06.72 0 .65-.1 1.42-.17 2.32 0 .32-.02.653-.06 1 0 .3 0 .62-.06.95v.52c0 .18 0 .52-.05.8s0 .5 0 .76v.7l-.25 4.67v1.54c0 .5 0 1-.07 1.54v10.26c.01 1.117.092 2.233.24 3.34.1.74.18 1.5.23 2.28v6.22c-.25 3.44-.72 6.23-.8 6.67v.94c0 .25.06.57.1.92v.5c0 .18 0 .38.06.58s0 .2 0 .3c0 .36.06.73.1 1.12l.12 1.23.06.8c0 .38.08.78.1 1.17v.4c0 .27.06.53.08.8l.1 1.23c0 .27.06.55.08.82v.42l.13 1.62c0 .27 0 .53.05.8 0 .42.06.85.1 1.25s0 .92.07 1.34.05.84.06 1.22a17.79 17.79 0 0 1 0 3.28 76.59 76.59 0 0 0-1.56 7.9c0 .3-.1.62-.12.94s0 .37 0 .56l-.06.75c0 .6-.07 1.2-.07 1.8a13.78 13.78 0 0 0 .45 3.77c.27 1.1.455 2.2.55 3.32.08.64.13 1.32.17 2s.06 1.42.1 2.15v1.45c.06 4.75-.2 9.3-.2 9.3a1.2 1.2 0 0 0 0 .12v.08c.1 2 1 17.77 2 23.07a23.99 23.99 0 0 1 .35 2.84c0 .3 0 .58.05.87a45.81 45.81 0 0 1-.71 9.19c-.545 3.032-1.47 12.2-1.94 12.2-.24 0-1.44 2.22-1.4 5.47v.08c0 3.06 1.18 7 5.2 11l1.12 1.12 13.95-5.18 7.37-2.88 18-7.38.35-.23z" fill="#102332"/><path d="M1000.64 232.35l-23.27 24.85s-29.86-12-26.72-16c1.22-1.58 1-6.57.32-12.08-1.1-8.7-3.46-18.74-3.46-18.74s52.2-8.5 47.78.32c-1.6 3.2-1.33 7-.33 10.44 1.28 4.015 3.2 7.8 5.68 11.2z" class="D"/><path d="M995.3 210.66c-1.6 3.2-2.37 3.52-1.37 7-6.82 7.32-15.5 15.33-26.3 15.33-5.78.01-11.485-1.325-16.66-3.9-1.1-8.7-3.46-18.74-3.46-18.74s52.2-8.5 47.78.3z" class="B"/><path d="M1005.05 194.62c0 20.528-16.9 37.42-37.42 37.42s-37.42-16.892-37.42-37.42v-.54c.442-20.214 17.192-36.6 37.41-36.6 20.42 0 37.27 16.72 37.42 37.14h.01z" class="D"/><path d="M1010.46 441.46l-40.13.47-6.1.1h-.2c-21.87.35-43.42-3.92-52.07-3.1-18.4 1.73 6.6-17 6.6-17a154.02 154.02 0 0 0 41.9 4.24l5.3-.28c16.7-.94 33.5-2.5 42.3-5.15l2.4 20.73z" class="B"/><path d="M1010.46 440.52l-40.13.47-6.1.1h-.2c-21.87.35-43.42-3.92-52.07-3.1-18.4 1.72 6.6-17 6.6-17 13.706 3.325 27.806 4.748 41.9 4.23l5.3-.27c16.7-.94 33.5-2.52 42.3-5.15l2.4 20.73z" class="E"/><path d="M957.56 242.76l-28.93 13.52-22.3 172.58s13.2-6 20.75-2.2 30.8.32 30.8.32 17-1 19.5.94 32.08-7.86 32.08-7.86 5.34-11.95 1.25-13.83 1.26-20.47 1.26-20.47l-2.5-124.5-5-16-13.52-8.17-13.83 11-6.6.95-12.94-6.27z" class="B"/><path d="M957.56 240.84l-28.92 13.52-22.32 172.62s13.2-6 20.75-2.2 30.8.3 30.8.3 17-.94 19.5.94 32.08-7.86 32.08-7.86 5.34-11.94 1.25-13.83 1.26-20.44 1.26-20.44l-2.5-124.5-5-16-13.52-8.18-13.83 11-6.6.94-12.94-6.3z" class="G"/><path d="M957.1 248.86s8.34 9.9 8.18 11.95l-.47 6.9-6.24 12.74s-3.46 15.88-3.46 19.18-5.5 31.9-5.5 31.9l-6.6 44-8.34 57.7 8.5 14.62 10.06-8.5 13.35-102.8 2.83-20.28 3-40.24c0-3.77-1.73-13.68-1.73-13.68s2.05-9.43 10.54-11.63-.63-.48-.63-.48l-4.87-3.93-4.25 1.73s-11.84-3.6-14.36.8z" class="B"/><path d="M956.15 247.92s8.33 9.9 8.18 11.94l-.48 6.92-6.3 12.74s-3.46 15.87-3.46 19.17-5.5 31.92-5.5 31.92l-6.6 44-8.33 57.7 8.5 14.62 10.06-8.5 13.35-102.8 2.83-20.28 3-40.25c0-3.78-1.73-13.67-1.73-13.67s2-9.44 10.53-11.64-.62-.47-.62-.47l-4.88-3.93-4.24 1.73s-11.78-3.62-14.3.8z" class="H"/><path d="M950.65 231.4s-1.26.94-1.57 7.23-4.72 20.44-4.72 20.44 16.35-11.32 24.53-10.06l-18.24-17.6z" class="B"/><path d="M950.65 229.52s-1.26.95-1.57 7.23-4.72 20.44-4.72 20.44 16.35-11.32 24.53-10.06l-18.24-17.6z" class="G"/><path d="M995.3 226.38l-25.74 22.64s21.7 12.9 24.53 16 5.66-30.8 5.66-30.8l-4.45-7.83z" class="B"/><path d="M996.24 224.5l-25.78 22.64s21.7 12.9 24.52 16 5.66-30.82 5.66-30.82l-4.4-7.82z" class="G"/><path d="M951.56 231.4s-2.83-1.42-5.5 2.67-7.7 6-7.7 6-28.62 4.56-29.72 8.33l-13.36.78s-4.72.57-5.16 10.57-3 10.84-3 10.84-5.5 9.75-5 14.78-4.25 7.55-4.25 7.55l19.7 51.04s.63 21.07-3 28.77-10.38 41.82-10.38 41.82 2.83-.63 2.67 1.26-3.46 22.48-3.46 22.48-.94 8.17-2.5 11-1.73 17.6-1.73 17.6l-2.6 10.7s6 13.36 15.1 11.47 25.62-37.57 25.62-37.57L927.8 413l8.18-38.05 2.36-25.78 3.77-57.07 5.5-37.73s6.17-20.28 3.94-22.95z" class="B"/><path d="M950.65 229.52s-2.83-1.4-5.5 2.68-7.7 6-7.7 6-28.6 4.56-29.7 8.33l-13.36.8s-4.72.63-5.2 10.53-3 10.85-3 10.85-5.5 9.75-5 14.78-4.24 7.54-4.24 7.54l19.62 51.06s.63 21.07-3 28.77-10.37 41.82-10.37 41.82 2.83-.63 2.67 1.26-3.46 22.48-3.46 22.48-.94 8.17-2.5 11-1.73 17.6-1.73 17.6l-2.5 10.74s6 13.36 15.1 11.48 25.63-37.58 25.63-37.58l10.53-38.5 8.18-38 2.35-25.78 3.78-57.06 5.5-37.73s6.13-20.38 3.93-23.06z" class="E"/><path d="M849.72 351.2l-9.16 6.3s-13.94.44-23.9-2l-5.08-2.25-1-.45 1.05.33c5.26 1.56 9.37 1.53 12.58.45 12.9-4.34 11.48-25.65 11-30.47 0-.48-.08-.8-.1-.9a.3.3 0 0 1 0-.06l.08.12a5.75 5.75 0 0 0 .59.83 6.68 6.68 0 0 0 .58.61l4.55 9.1v.38l8.8 18.02z" class="B"/><path d="M881.32 289.76l-4.4 1.26-.63 9s-5.2-.78-6.6 5.35-3.93 9-3.93 9-8.65 7.23-9.12 13.36l-5.35 3.3s-12.42-2.83-15.25-7.86c0 0 5.66 40.56-24.52 30.66 0 0 33.8 14.78 35.37 16.82s11.95 8 21.38 3 11.48-12.9 11.48-12.9 9.12-12.73 9.43-14.62 7.4-4.1 7.4-4.1l13.52-32.7-28.77-19.6z" class="E"/><path d="M991.68 245.24l4.56-20.75s2 6.76 4.1 8.33l6.76 5.2s6.76 3.15 9.1 3.15 15.1 3.3 16.67 5 7.86.47 7.86.47 5.2 1.73 9.75 2.83 6.76 8.65 5.8 11.63c-.77 3.017.06 6.227 2.2 8.5 1.9 1.9 2.83 8 2.83 8 2.32.754 4.24 2.394 5.35 4.56 1.57 3.46 1.1 11 1.1 11l-23.42 33s.3 12.73-.63 15.56 3.3 50.94 3.3 50.94l4.87 82.7s-6.44 5.5-7.86 6.13-2.83-29.24-2.83-30.34-36.3-54.4-36.3-54.4-4.88-7.86-4.88-9.6-4.56-17.6-4.56-17.6l-6.9-30.6 3.12-93.7z" class="B"/><path d="M1069.72 291.4l-.06 1.8-23.4 33s.32 12.74-.62 15.57c-.55 1.64.65 18.56 1.76 32.45l1.54 18.48 4.86 82.7s-6.44 5.5-7.85 6.13-2.83-29.24-2.83-30.35-36.34-54.4-36.34-54.4-4.87-7.87-4.87-9.6-4.56-17.6-4.56-17.6l-6.9-30.65 3.14-93.7 2.67-20.75s3.93 6.77 6 8.33l6.75 5.2s6.76 3.15 9.12 3.15 15.1 3.3 16.67 5 7.86.47 7.86.47 5.18 1.73 9.74 2.83 6.76 8.65 5.82 11.63c-.78 3.017.06 6.23 2.2 8.5 1.88 1.88 2.83 8 2.83 8a9.25 9.25 0 0 1 5.35 4.56c1.07 2.48 1.17 6.84 1.14 9.3z" class="E"/><path d="M899.83 712.3l-7.37 2.88c-7.7-2.25-14.9-4.9-14.9-4.9 7.458.267 14.896.94 22.28 2.02zm74.4-83.94s18.7 4.4 19.8 7.4l-19.8-7.4zm-72.16 13.52s-9.75 2.83-.3 8.5.3-8.5.3-8.5zm43.23-151.12c1.1 0 18.24-5.66 24.2-3.14s13.37 2.5 13.37 2.5l-37.58.63zm2.26 18l-.17 1.56-14.66 38.34s-2.36 11.63-4.4 18.23c-1.286 4.486-2.307 9.044-3.06 13.65l13-80.46 9.3 8.68z" class="B"/><path d="M970.33 441l-6.1.1h-.2l-3.57-15.85 5.3-.28 4.56 16.03z" class="E"/><path d="M1044.5 421.76l-16.94 14s-35.37 18.87-45.1.94c-8.6-15.8 31.5-27.06 41.17-29.52l2.06-.5 18.82 15.08z" class="D"/><path d="M893.43 267.25s6.9 3.15 8.48 7.55-8.48-7.55-8.48-7.55zm-21.4 47.17s-10.06 12.26-6 17 6-17 6-17zm179.86-40.25s-9.43.94-9.75 9.12l9.75-9.12zm-87.42 128.9c1-.94 22.64-33 27.67-30.18l-27.67 30.18zm40.57-208.46a37.27 37.27 0 0 1-4.43 17.66h-.28c-2.37-.5-3.6-3.26-5.4-5-2.28-2.166-5.7-2.646-8.5-1.2a8.61 8.61 0 0 0-4.17 8.07c-1.2-5-.82-10.4-2-15.43s-4.7-10.15-9.5-10.24c-2.08 0-4.5.77-6-.8-.9-.94-1.1-2.42-1.77-3.56-3.45-5.57-13.93-2.75-18.2.1s-9.25 7.42-14.57 9.87c.442-20.214 17.192-36.6 37.4-36.6 20.42 0 37.27 16.72 37.42 37.14l.01-.04z" class="B"/><path d="M963 183.16c.68 1.14.86 2.62 1.77 3.56 1.5 1.55 3.92.75 6 .8 4.82.08 8.34 5.2 9.5 10.23s.8 10.4 2 15.43c-.25-3.255 1.37-6.386 4.17-8.06 2.78-1.457 6.2-.977 8.48 1.2 1.8 1.72 3 4.48 5.42 5s4.66-1.78 5.52-4.28.8-5.24 1.35-7.83c1.07-4.9 4.27-8.93 6-13.6 2.1-5.672 2.05-11.927-.16-17.56-1.18-3-2.93-5.6-4.13-8.56-1.8-4.48-2.28-9.53-4.48-13.8-3.7-7.15-12.42-10.72-19.58-8-3.42 1.3-6.4 3.78-9.86 4.9-4.64 1.5-9.6.37-14.42-.3s-10.13-.73-14 2.43c-4.45 3.64-5.67 10.48-9.85 14.48-1.76 1.68-3.94 2.75-5.8 4.3s-3.45 3.86-3.24 6.38c.28 3.26 3.47 6.22 2.3 9.23-.424.876-1.02 1.658-1.75 2.3a33 33 0 0 0-7.61 12.95c8.42 2.63 17.52-6.65 24.1-11 4.33-2.93 14.8-5.76 18.25-.18z" fill="#183143"/><path d="M1044.5 421.76l-3.9 3.23c-3.45-5.75-17.62-17.23-17.62-17.23l.6-.6 2.06-.5 18.86 15.1z" class="B"/><path d="M1048.28 415.97l-2.86 6.53c-1.45 3.03-3 5.77-3.12 3.54-.16-4.4-18.4-19.2-18.4-19.2l5.34-5.2 19.03 14.3z" class="G"/><path d="M1048.9 392.7l2.06 35.08c-4.88-7.6-18.3-27.06-26.9-26.43l20.9-24c.87-.967 1.68-1.997 2.4-3.08l1.54 18.43z" class="B"/><path d="M1048.28 415.97l-2.86 6.53c-5.48-7.52-13-16.4-19-18.05l2.87-2.8 19 14.3z" class="B"/><path d="M1064 288.76l5.66 4.4s9.43.16 10.37 8 9.6 11.48 9.6 11.48 6.45 6.44 6.45 9.43 4.87 8.33 4.87 8.8 4.72 10.06 4.1 11.8 5 9.28 3.3 12.1a69.3 69.3 0 0 0-3.77 7.86c-1.1 2.696-7.4 14.15-11.17 16.82s-21.06 25.15-21.06 25.15-18.55 21.38-18.55 28c0 0-18.08-30.2-28.77-29.4l20.9-24.05s3.6-3.93 3.77-6.3 10.06-13.2 14.78-13.68c0 0 .78-6.45-1.26-6.6s-3.77-5.2-3.77-5.2-13.84-16.35-14-26.73 18.56-31.9 18.56-31.9z" class="E"/><path d="M1072.33 303.76s-13.2 9.74-10.38 12.9 10.38-12.9 10.38-12.9zm.63 40.2s24.52-7.86 27 0h-27zm-173-42.13s0 35.84-3.07 39.38 3.07-39.38 3.07-39.38zm141.72 11.56l4.56 12.8s1.8-12.57-4.56-12.8z" class="B"/></g><path d="M930.56 175.98c1.15-2.95-1.86-5.84-2.26-9-.395.892-.567 1.867-.5 2.84.2 2.4 2 4.6 2.43 6.82a3.95 3.95 0 0 0 .33-.66zm52.14 33.86c-1.13-5-.8-10.2-1.94-15.16s-4.7-10.16-9.5-10.24c-2.08 0-4.5.76-6-.8-.9-.94-1.1-2.42-1.77-3.56-3.44-5.57-13.92-2.75-18.2.1-6.43 4.27-15.26 13.2-23.5 11.2-.4.95-.76 1.9-1.07 2.9 8.42 2.63 17.52-6.65 24.1-11 4.3-2.85 14.76-5.68 18.2-.1.68 1.14.86 2.62 1.77 3.56 1.5 1.55 3.92.75 6 .8 4.82.08 8.34 5.2 9.5 10.23s.8 10.4 2 15.43a8.51 8.51 0 0 1 .41-3.36zm23.63-5.9c-.86 2.5-3.1 4.8-5.52 4.28s-3.6-3.26-5.4-5c-2.28-2.16-5.7-2.635-8.5-1.18a8.54 8.54 0 0 0-4.17 7.6 8.21 8.21 0 0 1 3.7-4.55c2.78-1.457 6.2-.977 8.48 1.2 1.8 1.72 3 4.48 5.42 5s4.66-1.78 5.52-4.28c.44-1.472.73-2.987.86-4.52-.1.5-.23.974-.4 1.45zm7.4-21.4c-1.77 4.66-5 8.68-6 13.58-.22 1-.34 2-.46 3 1.07-4.88 4.26-8.9 6-13.54a23.54 23.54 0 0 0 1.45-6.52c-.24 1.184-.57 2.348-1 3.48z" opacity=".1" class="C"/><circle cx="786.53" cy="295.97" r=".39" fill="#e6e8ec"/><g class="C F"><path d="M472.26 515.4s11-7.9 22.43-3c0 0-3.2 6.78-17.4 6.7l-5.03-3.7zm-1.36.45s-2.94 13.23 6 21.8c0 0 5-5.6-.67-18.63l-5.33-3.18zm-14.6-12.05s.4-11.17 25.7-8.44c0 0 .4 7.2-8.3 10.93s-12.85 1.03-17.4-2.5zm-1.54-.04s-10.5 3.82-.12 27.05c0 0 7-1.84 7.84-11.27s-2.98-12.5-7.72-15.78zm-14.84-15.22s-2.14-18.27 23.64-17.38c0 0 2.46 16.52-18.93 21.6l-4.7-4.23zm-17.78-20.04s2.73-20.9 28.66-15.7c0 0 .78 18-24.28 20.5l-4.38-4.8zm-13.24-20.92s5.12-20.5 30.8-15.37c0 0-5.36 18.42-29 19l-1.8-3.63zm-12.58-20.44s5-21.22 29.77-15.85c0 0-7.44 20.26-28 19.37l-1.77-3.52zm-8.37-19.54s3.45-25.83 26.6-21.05c0 0-5.76 23.62-24.76 24.72l-1.85-3.67zm-8.05-23.72s4.33-26.1 27.78-19.45c0 0-8.15 24.8-26 23l-1.78-3.55zm-5.26-22.12s7.46-26.2 25.42-26.2c0 0-7.6 27.67-23.72 31.33l-1.7-5.13zm-3.64-21.7s8-31.5 22.68-29.67c0 0-5.45 24.06-22 34.5l-.68-4.83zm-2.58-25.95s7.62-26.3 22-27.88c0 0-4.9 25.77-21.4 34.6l-.6-6.73zm-2.67-24.15s9.75-26.4 19.25-27.35c0 0-3.7 25.77-18.14 31.58l-1.1-4.23zm-2.05-22.5s5.53-28.5 14.94-31.2c0 0-.4 23.14-13.9 33.26l-1.04-2.07zm-4.72-29.37s6.1-22.77 13.66-26.5c0 0-.5 26.58-11.66 31.92l-2-5.43z"/><path d="M355.27 218.83l-2.92-39.63s15.5 29.4 4.2 46.56l-1.3-6.93zm-12.63-39s-11.46-28.57-14-30.1c0 0 21 18 20 42.27l-6-12.18zm96.56 308.6s-18.32-1.68-16.8 24.06c0 0 16.58 2 21.14-19.46l-4.35-4.6zm-17.95-20.6s-21.07.74-18.34 27c0 0 17.8 2.48 22.7-22.22l-4.35-4.78zm-12.48-18.54s-19.47-8.24-30.82 15.37c0 0 17.95 6.8 32.65-11.7l-1.83-3.67zm-12.87-21.95s-19.95-8.8-30.58 14.26c0 0 20.67 6.24 32.33-10.74l-1.75-3.52zm-7.68-19.2s-19.53-17.28-33.87 1.5c0 0 19.82 14.07 34.9 2.47l-1.02-3.97zm-7.26-24.9s-19.67-17.7-33.85 2.14c0 0 21.86 14.3 34.67 1.7l-.82-3.83z"/><path d="M376.56 360.93s-15.5-22.42-32.48-16.64c0 0 16.08 23.76 32.52 22l-.04-5.36zm-5.13-21.03s-15.83-28.4-29.55-22.84c0 0 11.46 21.85 30.12 27.7l-.57-4.85zm-2.06-27.3s-16-22.2-30.06-18.88c0 0 13.24 22.63 31.78 25.42l-1.72-6.54zm-2.04-23.2s-12.7-25.12-22.25-25c0 0 6.6 25.18 21.62 29.3l.63-4.3zm-3.2-22.5s-14-25.4-23.82-25.07c0 0 7.52 21.9 23.47 27.37l.35-2.3zm-3-27.3s-10.57-21.06-18.73-23.17c0 0 5.87 25.93 17.88 28.9l.85-5.73zm-7.05-21.48l-23.06-32.36s6.84 32.52 26.48 38.55l-3.42-6.2zm-16.33-35.44s-26-16.5-27-19.3c0 0 13.86 24 37.9 27.4l-10.9-8.1zm-1.82-7.8s-30.14-26.83-37.56-26.52c0 0 24 .18 38.2 25l-.64 1.52z"/></g><g fill="#444053" class="C"><path d="M361 243.76l-1.06.18c-7.1-42.55-16-67.52-25.15-70.3l.3-1c9.67 2.92 18.62 27.53 25.9 71.12z"/><path d="M372.95 345.7l-1.6.2c-.5-4-.9-8.06-1.24-12.12-2.88-35.34-6.5-67.75-10.53-92l.88-1.18c4 24.3 8.37 57.66 11.26 93 .32 4.1.74 8.16 1.22 12.1z"/><path d="M502.9 534.6c-.3-.12-28.94-11.6-59.33-40.5-17.793-16.904-32.796-36.52-44.45-58.12-14.57-27-24.1-60.52-28.13-93.28l1.7.72c9 73.52 44.54 122.66 72.3 149.06 30.1 28.63 58.42 40 58.7 40.13l-.78 2z"/></g><g opacity=".7" class="C"><g class="F"><path d="M522.8 502s12.86-4.25 22.3 3.8c0 0-5.07 5.53-18.6 1.2l-3.7-5zm-1.44 0s-6.74 11.76-.74 22.62c0 0 6.43-3.87 4.9-18l-4.16-4.62zm-10.34-15.8s3.72-10.55 27-.4c0 0-1.76 7-11.18 8s-12.52-2.88-15.82-7.6zm-1.46-.44s-11.17.53-8.16 25.8c0 0 7.18.32 10.83-8.42s.88-12.9-2.67-17.37zm-9.66-19s3.4-18.08 27.74-9.56c0 0-2.57 16.5-24.5 15l-3.24-5.44zm-11-24.46s8.83-19.15 32-6.46c0 0-4.6 17.37-29.27 12.33l-2.73-5.87zm-6.4-23.9s11-18.05 34-5.5c0 0-10.6 16-33.34 9.56l-.66-4.05zm-5.94-23.26s11.06-18.78 33.15-6.28c0 0-13.13 17.13-32.52 10.16l-.63-3.88zm-2.16-21.16s11-23.65 31.64-12.18c0 0-12.53 20.83-31 16.23l-.64-4.05zm-.64-25.02s11.9-23.62 32.3-10.3c0 0-15.17 21.26-31.68 14.17l-.63-3.87zm1.56-22.7s14.92-22.8 32.06-17.45c0 0-15.5 24.16-32 22.86l-.06-5.4zm2.98-21.77s17-27.7 30.48-21.57c0 0-12.37 21.34-31.25 26.4l.77-4.82zm5.26-25.55s15.1-22.83 29.28-20.07c0 0-12.33 23.15-30.74 26.68l1.46-6.6zm4.62-23.83s17.17-22.3 26.52-20.4c0 0-11.2 23.5-26.7 24.76l.2-4.37zm4.72-22.1s13.75-25.55 23.55-25.33c0 0-7.28 22-23.18 27.62l-.37-2.3zm4.26-29.45s12.58-19.92 20.92-21.23c0 0-8.4 25.23-20.63 27l-.3-5.77z"/><path d="M499.34 184.04l9-38.7s6.07 32.67-9.8 45.73l.8-7.04zm-.44-41s-2.44-30.7-4.43-32.9c0 0 14.73 23.46 6.5 46.3l-2.07-13.4zm.37 323.37s-17-7.07-23.18 18c0 0 15.2 6.9 26-12.3l-2.82-5.7zm-11.02-25.02s-20.33-5.56-25.55 20.36c0 0 16.25 7.67 28.28-14.46l-2.73-5.9zm-6.4-21.4s-16.13-13.66-34 5.5c0 0 15.1 11.83 34.65-1.46l-.65-4.05zm-5.75-24.78s-16.42-14.33-33.43 4.54c0 0 17.87 12.1 34.06-.65l-.63-3.9zm-1.62-20.62s-13.5-22.3-32.78-8.65c0 0 14.73 19.34 32.57 12.74l.2-4.1zm.48-25.96s-13.52-22.73-33-8c0 0 16.62 20.15 32.6 11.93l.4-3.93z"/><path d="M477.38 326.04s-8.1-26-26.06-25.55c0 0 8.3 27.48 24.5 30.73l1.56-5.18zm1.37-21.6s-6.67-31.82-21.42-30.6c0 0 4.44 24.27 20.52 35.4l.9-4.8zm6.15-26.7s-8.67-26-23.1-27c0 0 5.92 25.56 22.78 33.73l.3-6.73zm4.96-22.76s-4.65-27.76-13.8-30.47c0 0-1.18 26 11.93 34.42l1.88-3.95zm3.7-22.43s-5.83-28.42-15.28-31c0 0 .66 23.13 14.27 33.1l1-2.1zm5.2-26.94s-3.83-23.25-11-27.7c0 0-2.1 26.5 8.47 32.92l2.53-5.2zm-.34-22.6l-12.4-37.75s-3.15 33.1 13.8 44.7l-1.42-6.94zm-5.05-38.7s-19.9-23.5-20-26.46c0 0 6.1 27 28 37.42l-8-10.96zm.58-8s-20.8-34.6-28-36.5c0 0 22.88 7.32 29 35.24l-1 1.26z"/></g><g fill="#444053"><path d="M497.4 209.56l-1.06-.15c5.88-42.73 4.78-69.23-3.1-74.6l.6-.88c8.35 5.7 9.58 31.83 3.55 75.63z"/><path d="M478.48 310.44l-1.58-.3c.72-3.95 1.53-8 2.43-11.94 7.76-34.6 14-66.6 17.3-91l1.2-.86c-3.36 24.4-9.16 57.54-16.94 92.17a322.74 322.74 0 0 0-2.41 11.92z"/><path d="M546.34 529.45c-.24-.2-24.18-19.7-44.6-56.3-11.978-21.43-20.48-44.625-25.2-68.72-5.88-30.12-5-65 .9-97.42l1.4 1.2c-13.25 72.88 6 130.36 24.67 163.82 20.2 36.28 43.87 55.58 44.1 55.77l-1.3 1.67z"/></g></g><g class="C"><path d="M332.8 509.57c-2.35.97-4.793 1.7-7.3 2.18a73.22 73.22 0 0 1-13.23 1.25l.33 3.25.38 4.6-43.37-2.96-22.62-3.35a42.36 42.36 0 0 0 3.55 4.17 18.7 18.7 0 0 0 4.52 3.51c1.678.93 20.4 16.53 23.94 16.68.5 0 .66.5.58 1.3 8.6 0 35.3 1.25 27.9 16.12a11.85 11.85 0 0 1-6.07 5.91c-8.57 3.63-21.5-2.9-28.16-6.9l-1.82 3.46-1.92 3.54-.67-.48-34.32-24.44L227 531a26.27 26.27 0 0 1-6.51-1.13l-1-.32c-.043.087-.08.177-.1.27a13.98 13.98 0 0 0-.61 2.4v.36a28.14 28.14 0 0 0-.28 2.81c0 .64-.05 1.32-.05 2-.06 13.62 5.4 35.5 5.4 35.5s14.15 36.1 9.13 44.42a3.75 3.75 0 0 1-1 1.08c-1.77 1.28-2.83 3.56-3.38 6.27C226.72 633.5 230 647 230 647s-.3.5-.8 1.28c-1.103 1.764-2.348 3.436-3.72 5-.2.24-.43.5-.66.72-.62.65-1.288 1.252-2 1.8l.4 1.22a23.18 23.18 0 0 1 .46 1.7c1.113 4.914.677 10.054-1.25 14.7a40.53 40.53 0 0 0-2.52 10.57c-.65 6.63-.48 13.313.5 19.9-.15-.08-.28-.16-.43-.23a776.2 776.2 0 0 1-32.71-18.11l-9.4-5.55-11.43-7-15-9.6-2.34-1.56-4.68-3.17a192.02 192.02 0 0 1-14.14-21c-.7-1.27-1.35-2.48-1.88-3.6v-.06l-.34-.73-1.4-.5-4.33-1.58c1.223-4.462 1.81-9.074 1.74-13.7-.08-9-2.57-21-12.83-30.62C96.1 572.58 94 558.43 93.78 553v-1c-.005-.457.015-.915.06-1.37l1.16-1.1c-2.94-.6-5.7-.86-5.7-.86s10.06-36.4 27-48.55c8.4-6 15.4-16 20.33-24.58a372.6 372.6 0 0 1 30.28-44.39l4.13-5.2.24-.32-1.26-1.86-.28-.4c-1.33-2-2.47-4-2.3-6.4v-.58a7.64 7.64 0 0 1 .22-1.18c.034.064.074.124.12.18 1.43-4.16 6.94-6 11-8.3 9.57-5.38 13.65-17.15 15.7-28.1 1.6-8.52 2.9-18.07 9.5-23.54 4.26-3.52 10-4.68 14.3-8.17 2.494-2.204 4.555-4.852 6.08-7.8 1-1.7 1.86-3.46 2.8-5.16 4.26-7.7 9.86-14.86 17.27-19.47s16.8-6.4 24.93-3.3c3.13 1.2 6 3 9 4.33 1.852.755 3.766 1.35 5.72 1.78 6.1 1.43 12.54 1.8 18.28 4.35 9.33 4.14 15.4 13.3 20.94 22 2.87 4.5 7.38 11.08 9.94 17.7v-.7c1.234 2.915 1.913 6.036 2 9.2.05 1.347-.095 2.694-.43 4-.92 3.4-3.27 5.55-6.22 7.13l-.47.23c-.63.324-1.278.615-1.94.87-.1.55-.2 1.1-.33 1.65a17.8 17.8 0 0 1-.17.7c-.13.56-.28 1.1-.44 1.66-2.137 7.147-6.307 13.52-12 18.34a40.33 40.33 0 0 1-13.42 7.6c-.35.12-.72.2-1.07.32-.297.837-.722 1.623-1.26 2.33-.4.498-.847.94-1.36 1.3a8.36 8.36 0 0 1-1 .58c-.085.053-.175.097-.27.13-3.6 1.62-8.53.35-12-2.07-.18-.12-.35-.26-.52-.4 0 .57-.1 1.17-.2 1.8a28.43 28.43 0 0 1-.28 1.52c-.1.52-.15.77-.22 1.14l-.18.9-.12.5a78.56 78.56 0 0 1-11.14 27.1 38.6 38.6 0 0 1-2.53 3.41l-2.48 3.78v.5c.47 8.7-2.4 16.8-6.43 23.8a69.46 69.46 0 0 1-4.45 6.69l.56.33c5.6 3.2 16.64 8.86 23.62 8.38 0 0 26.4 3.4 29.46 1.7.42-.24.83.1 1.2.8 4.27-2.6 14.1-8.1 21.84-8.84 5.42-.52 9.83 1.3 10.65 8s-3.22 11.04-8.88 13.47z" fill="url(#B)" transform="translate(-25.44 -72.24)"/><path d="M162.85 574.84c3.423 5.84 3.955 12.946 1.44 19.23-2.43 6.1-2.7 13.68-2.45 19.25l-9.4-5.55-11.43-7-15-9.6-2.34-1.56-.9-.6c-.08-.146-.176-.28-.3-.4-1.34-1.42-9.15-12.62-13.8-21.12-.84-1.56-1.57-3-2.15-4.32v-.07c-1-2.22-1.47-4-1.17-4.8a9.86 9.86 0 0 1 4.85-6c5.76-3 15-.23 24.14 4.18a166.99 166.99 0 0 1 22.54 13.73l.8.6.08.06c3 2.13 4.74 3.54 4.74 3.54s.13.16.3.45z" class="D"/><path d="M161.33 573.5c3.43 5.844 3.962 12.96 1.44 19.25-2.43 6.1-2.7 13.68-2.45 19.26l-9.4-5.56-11.43-7-14.95-9.6-2.34-1.56-.9-.6a2.15 2.15 0 0 0-.29-.4c-1.34-1.4-9.15-12.6-13.8-21.12-.84-1.56-1.57-3-2.15-4.32v-.06c-1-2.23-1.47-4-1.17-4.82a9.89 9.89 0 0 1 4.85-6c5.76-3 15-.23 24.14 4.18a166.99 166.99 0 0 1 22.54 13.73l.8.6.08.06c3 2.13 4.74 3.54 4.74 3.54s.08.15.26.44z" fill-opacity=".05"/><path d="M198.15 597.76a24.46 24.46 0 0 1-1.41 5c-1.107 2.9-1.87 5.92-2.27 9-.787 6.535-.76 13.142.08 19.67a776.2 776.2 0 0 1-32.71-18.11l-9.4-5.55c-.7-5.32-1.7-10-2.83-11.15-1.48-1.56-9.93-13.64-15.18-23.17-.68-1.2-1.27-2.36-1.82-3.46v-.05l-.6-1.28c-1.35-2.9-2.07-5.16-1.7-6.25a11.54 11.54 0 0 1 4.12-5.94c8.87-6.48 27.3 2.3 41.47 11l.35.2c2.68 1.67 5.22 3.32 7.5 4.86l1.33.9c5.86 4 9.75 7.1 9.75 7.1.966 1.49 1.742 3.097 2.3 4.78.334.95.61 1.918.83 2.9.692 3.133.753 6.373.18 9.53z" class="D"/><path d="M108.75 567.5c7.27 2.54 18 5.9 23.84 6a11.29 11.29 0 0 0 1.81-.09c4.1-.56 16.78.34 28.4 1.4l12.86 1.22 9.32 1v-3.6c-2.6-1.78-5.6-3.76-8.82-5.76-14.2-8.78-32.88-17.75-41.82-11.22-12.6-6.08-25.37-9-29 1.82-.42 1.4 1.1 5 3.4 9.24z" class="B"/><path d="M73.82 483.68c.2 5.4 2.22 19.38 16.7 33.5 18.46 18 10.6 43.88 10.6 43.88s22 8.64 31.5 8.87a11.29 11.29 0 0 0 1.81-.09c5.7-.8 28.3 1.3 41.3 2.6l9.32 1v-76.52L83.1 472.18l-9.23 9.2c-.062.765-.076 1.533-.04 2.3z" class="F"/></g><path d="M183.36 572.5l1.67.17v.82l-9.32-1c-9.33-.94-23.6-2.28-33-2.67 6.5-.58 28.06 1.4 40.65 2.68zm-109.5-91.07l9.23-9.2 6.16 1.5-7.7 7.7a18.01 18.01 0 0 0 0 2.3c.2 5.4 2.22 19.37 16.7 33.5 18.46 18 10.6 43.87 10.6 43.87s18.2 7.15 28.63 8.62c-1.003-.004-2.004.053-3 .17a11.29 11.29 0 0 1-1.81.09c-9.5-.24-31.5-8.88-31.5-8.88s7.87-25.87-10.6-43.87C76.03 503.1 74 489.1 73.8 483.75a17.94 17.94 0 0 1 .04-2.33z" opacity=".1" class="C"/><g class="C"><path d="M277.56 429.64s30.83-21.38 33.08-2.14-33.08 16.54-33.08 16.54v-14.4z" class="D"/><use xlink:href="#D" fill="#f7cddd"/><use xlink:href="#D" class="H"/><path d="M248.84 471.1s37.5-1.55 29.1 15.9-36.8-3.74-36.8-3.74l7.7-12.17z" class="D"/><path d="M211.14 433.9s30.38-22.73 26.1-50.4-26.1 21.16-26.1 21.16v29.25z" class="H"/><path d="M219.56 308.42a38.42 38.42 0 0 0 10.8 26.68c3.733 3.854 8.23 6.89 13.2 8.9 1.603.67 3.254 1.22 4.94 1.64 1.79.462 3.612.796 5.45 1 1.32.13 2.65.2 4 .2a37.84 37.84 0 0 0 12.61-2.19c15.408-5.352 25.8-19.963 25.8-36.274 0-21.066-17.334-38.4-38.4-38.4s-38.4 17.334-38.4 38.4v.034z" class="D"/><path d="M73.82 483.68c3.44.63 7.7 1.8 7.7 3.57 0 3 48 19.2 48 19.2s-1.8 4.2 3 11.4 43.83 48.6 43.83 48.6l-.13 1.22-2.88 27.58s15-5.4 19.8-4.8c1.55.2 3.24-.8 4.8-2.24a23.01 23.01 0 0 0-3.13-7.67c-1.5-2.346-3.9-3.06-9.76-7.1v-76.5L83.1 472.18l-9.23 9.2c-.062.765-.076 1.533-.04 2.3z" class="B"/><path d="M69.5 479.45s12 1.2 12 4.2 48 19.2 48 19.2-1.8 4.2 3 11.4 43.83 48.6 43.83 48.6l-3 28.8s15-5.4 19.8-4.8c2.15.27 4.52-1.72 6.48-4 1.626-1.922 3.075-3.987 4.33-6.17s-5.4-22.82 1.8-28.22-7.8-45-7.8-45-6.8-28.16-4.8-40.24c.127-.805.32-1.597.58-2.37 0-.1.05-.18.1-.27 4.28-11.54 50.32-108.35 50.32-108.35-.03-2.746-.223-5.487-.58-8.2-.1-.76-.2-1.55-.36-2.34-.232-1.44-.543-2.865-.93-4.27-.26-.92-.54-1.8-.87-2.64-1.42-3.66-3.6-6.47-6.86-6.54 0 0-3.6-4-12-5.06-6.2-.8-15 0-27 5.06-28.2 12-34.8 12.6-34.8 12.6l-17.1 22.4a367.28 367.28 0 0 0-28.91 43.89c-4.72 8.48-11.4 18.37-19.4 24.3-16.2 12-25.82 48-25.82 48z" class="H"/><path d="M174.68 410.06s-40.06 9.9-55.6 34.88l55.6-34.88zm-12.38 43.88s-7.57 50.86-5.47 54.7 5.47-54.7 5.47-54.7zm2.7 26.1c2.92 3.82 14.75 33.3 14.75 33.3l-3.42 49.5-3 28.8s15-5.4 19.8-4.8c2.14.27 4.52-1.7 6.48-4-3.12-16.87-9.78-52.16-11-52.84-1.6-.9-9.7-29.26-10.12-37.14s-11.7-25.64-11.7-25.64-4.72 8.98-1.8 12.8zm11.34-48.6c.73 2.25 1.9 15.3 1.9 15.3.82 11.5 9.52 15.27 14.92 16.47a14.53 14.53 0 0 1 .58-2.37c3.6-10.2 50.4-108.62 50.4-108.62-.048-4.996-.676-9.97-1.87-14.82-10.2-3-26.33 1.62-26.33 1.62-4.66-.6-19.87 29.64-19.87 29.64l-11.25 26.32c-1.1 3.15 0 8.34-.45 10.14s-5.2 3.36-5.86 5.85-.23 7.4-.68 8.3-2.27 9.9-1.5 12.16z" class="B"/><path d="M179.94 429.64c.74 2.25 1.9 15.3 1.9 15.3.68 9.58 6.84 13.8 12 15.63 2.317.828 4.743 1.313 7.2 1.44l7.24 6.28 33.4 24.65s12.46-23 9.08-23.15-22.87-16.5-22.87-16.5c-6-3.18-11.94-13.82-14.7-19.28.164-.658.284-1.326.36-2 1.2-10.2 26.4-49.2 26.4-49.2s9.74-11.47 13.54-32.72c.1-.48.18-1 .27-1.5.108-.662.175-1.33.2-2 .45-8.17-5.5-11.14-12.55-11.85-3.668-.285-7.356-.17-11 .34a79.16 79.16 0 0 0-10.8 2.12c-3-.4-10.46 12.16-15.34 21.05l-4.52 8.6-11.33 26.33c-1.14 3.15 0 8.33-.45 10.14s-5.2 3.36-5.85 5.85-.24 7.4-.7 8.3-2.25 9.9-1.5 12.16z" class="H"/><path d="M141.17 377.76c6.34 6.52 16.68 6.54 24.94 3.23s15.27-9.35 22.94-14c5-3 10.24-5.53 15.14-8.66a69.8 69.8 0 0 0 2.1-1.42c5.66-4 10.55-9.13 16.4-12.8 3.92-2.594 8.482-4.054 13.18-4.22 2.168-.022 4.314.43 6.3 1.32a8.17 8.17 0 0 1 1 .52c1.923 1.113 3.703 2.456 5.3 4 1.65 1.5 3.24 3.08 5 4.46.1-.48.18-1 .27-1.5.108-.662.175-1.33.2-2 1.32.13 2.65.2 4 .2 4.307-.023 8.578-.78 12.63-2.24 0-.16.06-.33.1-.5 1.44-7.56 4-15.57 10.12-19.82 3.53-2.47 9.17-3.47 14.05-5.35.99-3.445 1.49-7.012 1.49-10.597 0-21.066-17.334-38.4-38.4-38.4s-38.4 17.334-38.4 38.4c0 5.065 1.002 10.08 2.95 14.757-6.2-.8-15 0-27 5.06-28.2 12-34.8 12.6-34.8 12.6l-14.1 18.6c1.53 2.34 3.26 4.65 3.42 7.38.32 5.06-4.56 8.55-8.8 10.96z" class="B"/><path d="M280.82 320.76c-6.1 4.26-8.68 12.26-10.12 19.8-.45 2.36-.88 4.85-2.32 6.72-3.23 4.2-9.73 3-13.95 0s-7.54-7.56-12.25-9.7c-6.26-2.82-13.6-.76-19.46 2.9s-10.75 8.8-16.4 12.8c-5.47 3.86-11.57 6.6-17.27 10.08-7.66 4.67-14.66 10.7-22.93 14s-18.6 3.3-24.93-3.22c4.25-2.36 9.13-5.85 8.8-10.9s-6.22-8.84-5.82-14 6.5-7.22 10.86-9.76c9.15-5.32 13-17 15-27.8 1.52-8.43 2.77-17.86 9.08-23.27 4.06-3.5 9.57-4.63 13.66-8.08 3.88-3.28 6-8.25 8.48-12.82 4.07-7.63 9.4-14.7 16.48-19.27s16.06-6.32 23.82-3.25c3 1.17 5.68 3 8.62 4.27 7.3 3.16 15.67 2.74 22.9 6.06 8.9 4.1 14.7 13.16 20 21.76 4.53 7.35 13.4 20.36 10.9 29.86-2.53 9.7-16.55 9.17-23.16 13.8z" fill="#183143"/></g><path d="M144.16 348.63a6.19 6.19 0 0 1 .21-1.17c1.6 2.54 3.62 5 3.8 8a6.86 6.86 0 0 1-.17 2.05c-1.8-2.88-4.1-5.57-3.85-8.88zm20.14 20.94c8.27-3.32 15.27-9.35 22.93-14 5.7-3.47 11.8-6.22 17.27-10.08 5.66-4 10.56-9.13 16.4-12.8s13.2-5.73 19.46-2.9c4.7 2.13 8 6.64 12.25 9.7s10.72 4.24 13.95.05c1.45-1.87 1.87-4.35 2.32-6.7 1.44-7.56 4-15.56 10.12-19.82 6.62-4.62 20.63-4.1 23.17-13.85a15 15 0 0 0 .33-5.29c1.63 4.33 2.46 8.7 1.48 12.5-2.55 9.75-16.56 9.23-23.18 13.85-6.08 4.26-8.68 12.26-10.12 19.82-.45 2.36-.87 4.85-2.3 6.7-3.24 4.2-9.74 3-14-.05s-7.54-7.56-12.25-9.7c-6.26-2.82-13.6-.75-19.46 2.9s-10.75 8.8-16.4 12.8c-5.47 3.87-11.57 6.6-17.27 10.08-7.66 4.68-14.66 10.7-22.93 14s-18.6 3.3-24.93-3.23a31.1 31.1 0 0 0 4.64-3.08c5.78 2.1 12.68 1.45 18.53-.9z" opacity=".1" class="C"/><g class="C"><path d="M815.56 271.4l-41-41.23a21.78 21.78 0 0 0-30.92-.21L486.18 485.24l-108.86-109.7c-8.36-8.48-22.22-8.58-30.7-.22l-41.44 41c-8.467 8.456-8.56 22.35-.2 30.92L470.3 613.85c8.454 8.47 22.347 8.57 30.92.22L815.33 302.3a21.78 21.78 0 0 0 .23-30.91z" fill="#ee8f44"/><path d="M753.78 602s-30.58-1.84-27 19.6a5.24 5.24 0 0 0 2.72 5.5c1.995 1.05 0-1.6 3.13-1.05a13.86 13.86 0 0 0 3.33.16 6.87 6.87 0 0 0 4.06-1.67c1.134-.986 8.6-3.55 11.94-17.6 0 0 2.47-3.06 2.37-3.85l-5.16 2.2s1.77 3.72.38 6.8c0 0-.17-6.68-1.16-6.52-.2 0-2.68 1.3-2.68 1.3s3 6.48.74 11.2c0 0 .87-8-1.7-10.73l-3.63 2.12s3.54 6.7 1.14 12.16c0 0 .62-8.38-1.9-11.64l-3.3 2.56s3.33 6.6 1.3 11.14c0 0-.26-9.76-2-10.5 0 0-2.88 2.54-3.32 3.6 0 0 2.28 4.8.87 7.32 0 0-.87-6.5-1.58-6.53 0 0-2.87 4.3-3.17 7.25a15.72 15.72 0 0 1 2.47-7.67c-1.654.317-3.18 1.1-4.4 2.28s.44-3 5.1-3.32c0 0 2.37-3.26 3-3.46 0 0-4.63-.4-7.44.86 0 0 2.47-2.88 8.28-1.57l3.25-2.65s-6.1-.84-8.68.08c0 0 3-2.54 9.56-.7l3.54-2.1s-5.2-1.12-8.3-.72c0 0 3.27-1.76 9.34.15l2.53-1.14s-3.8-.75-4.93-.86-1.17-.43-1.17-.43a13.23 13.23 0 0 1 7.15.8c2.263.922 5.4-2 5.3-2.35zM698.9 452.35s-15.53 26.4 5.2 32.93a5.25 5.25 0 0 0 6.14.08c1.845-1.298-1.4-.77.48-3.27a14.15 14.15 0 0 0 1.66-2.9 7 7 0 0 0 .35-4.38c-.356-1.46.73-9.27-10.27-18.63 0 0-1.6-3.6-2.35-3.87l-.38 5.6s4.1.12 6.24 2.76c0 0-6-2.88-6.34-1.93-.06.2-.07 3-.07 3s7.16.24 10.32 4.42c0 0-6.72-4.4-10.33-3.36l.24 4.2s7.58-.12 11.36 4.5c0 0-7.2-4.36-11.24-3.6l.8 4.1s7.4 0 10.5 3.9c0 0-8.8-4.2-10.26-3 0 0 1 3.72 1.68 4.6 0 0 5.3.14 6.92 2.55 0 0-6.2-2.18-6.54-1.56 0 0 2.54 4.5 5 6.12a15.65 15.65 0 0 1-5.71-5.69 8.62 8.62 0 0 0 0 5c.494 1.63-2.5-1.78-.63-6 0 0-1.84-3.6-1.73-4.25 0 0-2.44 3.95-2.6 7 0 0-1.44-3.5 2.36-8.1l-.88-4.1s-3.5 5.06-3.87 7.78c0 0-.9-3.8 3.73-8.83l-.28-4.1s-3.36 4.12-4.4 7.06c0 0-.1-3.7 4.36-8.25l.14-2.77s-2.4 3.06-3 4-.9.85-.9.85c.734-2.328 2.102-4.406 3.95-6s.7-5.78.36-5.85zm-97.12-210.7s-15.52 26.42 5.2 32.93a5.23 5.23 0 0 0 6.14.08c1.843-1.304-1.4-.77.5-3.27a14.09 14.09 0 0 0 1.65-2.9 6.93 6.93 0 0 0 .35-4.38c-.36-1.46.74-9.27-10.27-18.63 0 0-1.6-3.6-2.35-3.86l-.38 5.6s4.12.12 6.24 2.76c0 0-6-2.88-6.33-1.93-.07.2-.07 3-.07 3s7.15.24 10.3 4.42c0 0-6.72-4.4-10.33-3.36l.25 4.2s7.57-.12 11.35 4.5c0 0-7.2-4.35-11.24-3.6l.8 4.1s7.4 0 10.52 3.9c0 0-8.82-4.2-10.27-3 0 0 1 3.7 1.7 4.58 0 0 5.3.14 6.9 2.55 0 0-6.2-2.18-6.53-1.56 0 0 2.53 4.52 5 6.12-2.37-1.362-4.342-3.32-5.72-5.68a8.69 8.69 0 0 0 0 4.94c.478 1.612-2.5-1.78-.63-6.05 0 0-1.84-3.6-1.73-4.25 0 0-2.44 3.95-2.6 7 0 0-1.44-3.5 2.37-8.1l-.9-4.1s-3.5 5.06-3.86 7.78c0 0-.92-3.8 3.72-8.83l-.28-4.1s-3.36 4.12-4.4 7.06c0 0-.1-3.7 4.36-8.24l.14-2.78s-2.4 3.06-3 4-.9.85-.9.85a13.22 13.22 0 0 1 4-6c1.863-1.6.65-5.63.3-5.75zM267.42 41.55s-57.8 42-19.54 75.27c0 0 4.33 7.88 13.06 5.9 0 0-2.26-2.94 4.1-6.54a32.51 32.51 0 0 0 6.22-4.64 16.1 16.1 0 0 0 4.83-9c.6-3.444 10.22-19.14-4.6-49.4 0 0-.1-9.2-1.44-10.46l-6 11.62s8.7 4.1 10.78 11.72c0 0-10.2-11.8-11.76-10-.3.35-2.92 6.3-2.92 6.3s15.1 7.18 17.95 19.06c0 0-10.28-15.68-19-16.82l-3.4 9.2s16.3 6.8 20.1 20.2c0 0-11.32-16-20.7-18.15l-2.12 9.5s15.78 6.95 18.85 18.12c0 0-15-17.18-19.2-15.9 0 0-1.42 8.84-.67 11.37 0 0 11.22 5.25 12.42 11.9 0 0-11.2-10.42-12.53-9.42 0 0 1.22 12 5.06 17.77 0 0-6.3-8.1-6.93-17.48 0 0-4.3 5-4.53 10.6 0 0-3.72-6.15 4.27-13.53 0 0-.57-9.4.28-10.7 0 0-8.92 6.17-12.13 12.57 0 0 .2-8.84 12.6-15.1l1.92-9.6s-12.2 7.53-15.5 13c0 0 1.6-9 16.18-15.42l3.24-9.05s-11 5.7-16 11c0 0 3.27-8 17-13.57l2.87-5.8s-8 4.3-10.15 5.74-2.75 1-2.75 1a30.76 30.76 0 0 1 14.06-9.17c5.446-1.694 6.74-11.64 6.07-12.1zm-56.15 138.6S136.5 148.7 126.7 205.4c0 0-5.1 8.84 2 16.14 0 0 1.53-3.92 8.76.13a37.17 37.17 0 0 0 8.16 3.32 18.36 18.36 0 0 0 11.62-.62c3.703-1.46 24.58-1.33 45.27-33.5 0 0 8.86-5.48 9.3-7.54l-14.83 1s1.14 10.85-5 17.36c0 0 5.45-16.84 2.83-17.3-.53-.1-7.83.86-7.83.86s1.9 18.87-8 28.63c0 0 9.18-19.2 5.18-28.3l-10.93 2.1s3 19.85-7.82 31.4c0 0 8.9-20.4 5.46-30.76l-10.48 3.52s2.53 19.4-6.52 29c0 0 7.9-24.6 4.18-28 0 0-9.42 3.82-11.44 6 0 0 1.5 14-4.26 19.05 0 0 3.54-17 1.8-17.7 0 0-10.95 8.24-14.3 15.35 0 0 4.17-10.86 12.9-17 0 0-7.34-1.25-13 1.83 0 0 3.8-7.2 15.65-3.8 0 0 8.8-6.1 10.55-6 0 0-11.22-5-19.33-4.38 0 0 8.7-5 22.07 3.35l10.43-3.78s-14.5-7.43-21.76-7.4c0 0 9.66-3.74 24.48 6.66l10.7-2.2s-12-7.35-20.1-9.05c0 0 9.7-1.54 23.18 8.55l7.32-.6s-8.86-5.22-11.54-6.5-2.56-2.1-2.56-2.1a34.9 34.9 0 0 1 17.17 8.26c4.846 4.292 15.17-.3 15.24-1.24zm-44.77-79.38S140 39.5 101.88 67.6c0 0-8.07 2.34-8 10.7 0 0 3.14-1.46 5.12 5.07.738 2.313 1.745 4.532 3 6.6a15.06 15.06 0 0 0 7.26 6.25c3.035 1.237 15.36 13.22 46 5.9 0 0 8.4 1.8 9.83.83l-9.37-7.87s-5.5 7.1-12.88 7.44c0 0 12.83-6.9 11.54-8.67-.26-.36-5.14-3.94-5.14-3.94s-9.63 12.28-21 12.47c0 0 16.4-6.18 19.2-13.85l-7.7-5s-9.67 13.53-22.66 14.24c0 0 16.9-7.05 20.77-15.17l-8.23-3.83s-9.56 13-20.37 13.5c0 0 18.7-10.12 18.42-14.25 0 0-7.77-3.1-10.23-2.92 0 0-7.07 9.15-13.38 8.9 0 0 11.8-8.1 11.14-9.5 0 0-11.2-1.34-17.23 1 0 0 8.66-4.08 17.35-2.74 0 0-3.65-4.93-8.75-6.3 0 0 6.37-2.13 11.46 6.65 0 0 8.7 1.4 9.7 2.44 0 0-3.8-9.4-9-13.62 0 0 8 2 11.2 14.57l8.35 3.7s-4.37-12.68-8.7-16.8c0 0 7.87 3.28 10.75 17.9l7.6 4.8s-2.94-11.2-6.77-16.83c0 0 6.64 4.62 8.9 18.3l4.7 3.8s-2.3-8.14-3.17-10.42-.32-2.7-.32-2.7a28.75 28.75 0 0 1 5.49 14.68c.435 5.307 9.2 8.4 9.76 7.86zm516.68 31.88s-6.25-30-26-20.9a5.23 5.23 0 0 0-4.6 4.07c-.487 2.205 1.55-.37 1.84 2.75a14.35 14.35 0 0 0 .71 3.25 7 7 0 0 0 2.69 3.48c1.247.84 5.68 7.36 20.1 6.9 0 0 3.6 1.58 4.35 1.28l-3.5-4.4s-3.13 2.68-6.47 2.15c0 0 6.4-1.9 6-2.83-.1-.2-1.95-2.25-1.95-2.25s-5.46 4.63-10.6 3.66c0 0 7.93-1.26 9.9-4.45l-3-2.95s-5.54 5.18-11.44 4.3c0 0 8.25-1.6 10.74-4.9l-3.34-2.5s-5.5 4.94-10.4 4.17c0 0 9.35-2.82 9.6-4.7 0 0-3.2-2.1-4.33-2.26 0 0-4 3.46-6.83 2.76 0 0 6-2.54 5.9-3.24 0 0-4.9-1.64-7.84-1.15a15.71 15.71 0 0 1 8.05.37c-.735-1.516-1.9-2.782-3.35-3.64s3.06-.37 4.54 4c0 0 3.77 1.43 4.13 2 0 0-.84-4.57-2.78-7 0 0 3.42 1.63 3.7 7.6l3.4 2.44s-.8-6.1-2.36-8.36c0 0 3.23 2.2 3.17 9l3 2.86s-.28-5.3-1.48-8.2c0 0 2.55 2.7 2.3 9l1.76 2.15s-.27-3.87-.45-5 .1-1.25.1-1.25c1.022 2.225 1.406 4.7 1.1 7.12s3.33 4.84 3.63 4.66zM575.56 688.76s-6.24-30-26-20.9a5.22 5.22 0 0 0-4.6 4.07c-.48 2.206 1.55-.37 1.84 2.75.108 1.108.35 2.2.72 3.25.497 1.417 1.437 2.638 2.68 3.48s5.68 7.36 20.12 6.9c0 0 3.6 1.58 4.34 1.28l-3.48-4.4s-3.13 2.68-6.48 2.15c0 0 6.4-1.9 6-2.83-.08-.2-1.95-2.25-1.95-2.25s-5.46 4.63-10.6 3.66c0 0 7.94-1.26 9.9-4.45l-3-3s-5.48 5.2-11.4 4.28c0 0 8.25-1.6 10.74-4.9l-3.34-2.5s-5.5 4.94-10.4 4.17c0 0 9.35-2.8 9.6-4.7 0 0-3.2-2.1-4.33-2.26 0 0-4 3.46-6.84 2.76 0 0 6-2.54 5.9-3.24 0 0-4.9-1.64-7.84-1.15 2.673-.58 5.45-.45 8.06.37a8.65 8.65 0 0 0-3.35-3.64c-1.447-.86 3.05-.37 4.53 4 0 0 3.78 1.43 4.14 2 0 0-.84-4.57-2.78-7 0 0 3.42 1.63 3.68 7.6l3.42 2.44s-.8-6.1-2.37-8.36c0 0 3.24 2.2 3.18 9l3 2.86s-.28-5.3-1.5-8.2c0 0 2.56 2.7 2.3 9l1.76 2.15s-.28-3.87-.46-5 .1-1.24.1-1.24a13.17 13.17 0 0 1 1.11 7.11c-.297 2.427 3.32 4.87 3.6 4.72z" opacity=".5" class="F"/></g><defs><linearGradient id="A" x1="974.2" y1="792.81" x2="974.2" y2="205.4" gradientUnits="userSpaceOnUse"><stop offset="0" stop-color="gray" stop-opacity=".25"/><stop offset=".54" stop-color="gray" stop-opacity=".12"/><stop offset="1" stop-color="gray" stop-opacity=".1"/></linearGradient><linearGradient id="B" x1="215.55" y1="703.96" x2="215.55" y2="309.97" gradientUnits="userSpaceOnUse"><stop offset="0" stop-color="gray" stop-opacity=".25"/><stop offset=".54" stop-color="gray" stop-opacity=".12"/><stop offset="1" stop-color="gray" stop-opacity=".1"/></linearGradient><path id="C" d="M1005.04 477.9s19.65-1.88 21.38-.47 12.9 8.65 19.5 4.1 2.2-20.44 2.2-21.07-.63-23.1-.63-23.1l-11.8-15.88-14.78-27.82-30.18-3 .78 44.18-.15 22.64 13.67 20.44z"/><path id="D" d="M224.4 415.46s16.67 11 25.9 10.35c0 0 25.2 3.38 28.13 1.7s4.73 24.42 4.73 24.42l-41.4-2.93-26.56-4.05s-13.28-8.1-13.28-15.08 22.5-14.4 22.5-14.4z"/></defs></svg>